<svg xmlns="http://www.w3.org/2000/svg" xmlns:xlink="http://www.w3.org/1999/xlink" width="500" zoomAndPan="magnify" viewBox="0 0 375 374.999991" height="500" preserveAspectRatio="xMidYMid meet" version="1.0"><defs><g/></defs><g fill="#000000" fill-opacity="1"><g transform="translate(40.931469, 196.914136)"><g><path d="M 22.222656 -25.25 C 14.355469 -31.042969 8.734375 -34.675781 8.734375 -36.664062 C 8.734375 -37.617188 9.859375 -38.050781 12.367188 -38.050781 C 20.320312 -38.050781 28.449219 -29.054688 28.449219 -29.054688 L 32.339844 -39.605469 C 32.339844 -39.605469 29.316406 -44.1875 17.898438 -44.1875 C 8.128906 -44.1875 2.941406 -37.703125 2.941406 -33.464844 C 2.941406 -29.230469 4.0625 -24.644531 15.824219 -16.171875 C 23.695312 -10.808594 28.882812 -7.871094 28.882812 -5.792969 C 27.84375 -4.757812 26.632812 -4.238281 25.421875 -4.238281 C 14.183594 -4.324219 8.820312 -14.09375 8.820312 -14.09375 L 0.691406 -5.792969 C 0.691406 -5.792969 5.1875 1.296875 17.121094 1.296875 C 34.15625 1.296875 35.542969 -7.4375 35.542969 -9.683594 C 35.542969 -15.566406 31.996094 -17.988281 22.222656 -25.25 Z M 22.222656 -25.25 "/></g></g></g><g fill="#000000" fill-opacity="1"><g transform="translate(77.509393, 196.914136)"><g><path d="M 36.839844 -11.328125 C 36.839844 -18.246094 36.839844 -23.953125 36.839844 -30.871094 C 36.839844 -32.515625 36.664062 -38.914062 24.730469 -43.582031 C 18.332031 -46.089844 11.15625 -45.398438 6.226562 -40.558594 L 10.464844 -30.007812 C 12.886719 -35.023438 17.898438 -39.257812 23.089844 -39.257812 C 25.769531 -39.257812 26.375 -32.253906 26.203125 -30.351562 C 20.496094 -27.585938 10.808594 -22.742188 3.285156 -18.9375 C 1.382812 -17.898438 0.605469 -16.171875 0.605469 -14.355469 C 0.605469 -8.214844 8.90625 0.605469 14.183594 0.605469 C 18.9375 0.605469 24.992188 -5.449219 26.722656 -7.175781 L 26.722656 -5.707031 C 26.722656 -0.777344 30.527344 0.0859375 30.527344 0.0859375 L 39.953125 -3.890625 C 36.925781 -6.3125 36.839844 -10.550781 36.839844 -11.328125 Z M 19.199219 -8.820312 C 17.898438 -8.820312 16.691406 -8.90625 15.566406 -9.167969 C 13.488281 -9.597656 11.847656 -12.191406 11.847656 -14.875 C 11.847656 -16.863281 12.796875 -18.9375 15.132812 -20.40625 C 22.136719 -24.730469 24.992188 -26.460938 26.289062 -27.238281 L 26.722656 -9.945312 C 25.078125 -9.253906 22.050781 -8.820312 19.199219 -8.820312 Z M 19.199219 -8.820312 "/></g></g></g><g fill="#000000" fill-opacity="1"><g transform="translate(118.41094, 196.914136)"><g><path d="M 29.660156 -44.015625 C 24.386719 -44.015625 15.910156 -37.445312 14.09375 -36.148438 L 14.09375 -44.1875 C 14.09375 -44.1875 1.039062 -38.222656 1.039062 -38.136719 C 4.0625 -35.109375 4.238281 -30.613281 4.238281 -30.4375 L 4.238281 6.917969 C 4.238281 8.128906 4.152344 13.144531 1.039062 16.949219 L 17.640625 16.949219 C 14.441406 11.761719 14.355469 7.175781 14.355469 6.660156 L 14.355469 -1.210938 C 18.246094 0.519531 21.792969 1.296875 24.992188 1.296875 C 36.320312 1.296875 42.460938 -8.992188 42.460938 -22.050781 C 42.460938 -32.082031 38.308594 -44.015625 29.660156 -44.015625 Z M 28.449219 -5.273438 C 26.980469 -4.152344 25.25 -3.71875 23.519531 -3.71875 C 17.988281 -4.0625 14.875 -6.570312 14.183594 -11.328125 L 14.183594 -33.550781 C 15.566406 -34.15625 18.765625 -34.847656 21.964844 -34.847656 C 24.730469 -34.847656 27.585938 -34.332031 29.054688 -32.429688 C 30.785156 -30.265625 31.734375 -24.730469 31.734375 -19.109375 C 31.734375 -13.058594 30.613281 -7.003906 28.449219 -5.273438 Z M 28.449219 -5.273438 "/></g></g></g><g fill="#000000" fill-opacity="1"><g transform="translate(162.684924, 196.914136)"><g><path d="M 8.90625 -47.992188 L 16.777344 -56.554688 C 16.777344 -56.554688 12.019531 -58.976562 9.078125 -64.511719 L 0.953125 -56.640625 C 0.953125 -56.640625 3.546875 -51.019531 8.90625 -47.992188 Z M 17.8125 0.0859375 C 14.613281 -5.015625 14.527344 -9.683594 14.527344 -10.117188 L 14.441406 -44.1875 L 1.125 -38.136719 C 4.410156 -35.453125 4.410156 -30.4375 4.410156 -30.4375 L 4.410156 -9.859375 C 4.410156 -8.648438 4.238281 -3.632812 1.125 0.0859375 Z M 17.8125 0.0859375 "/></g></g></g><g fill="#000000" fill-opacity="1"><g transform="translate(181.622434, 196.914136)"><g><path d="M 26.289062 -5.101562 C 21.53125 -5.101562 17.8125 -5.535156 14.527344 -12.539062 C 14.09375 -13.402344 14.183594 -13.921875 14.183594 -13.921875 L 33.550781 -37.875 C 33.550781 -37.875 29.746094 -44.1875 19.976562 -44.1875 C 7.265625 -44.1875 1.730469 -34.9375 1.730469 -22.136719 C 1.730469 -6.054688 8.90625 1.210938 19.890625 1.210938 C 29.574219 1.210938 33.550781 -5.101562 34.332031 -6.054688 C 31.734375 -5.535156 28.96875 -5.101562 26.289062 -5.101562 Z M 9.425781 -33.121094 C 9.597656 -36.492188 10.378906 -38.222656 13.402344 -38.050781 C 20.667969 -37.617188 25.25 -35.542969 20.839844 -28.796875 C 19.371094 -26.546875 13.144531 -17.207031 13.144531 -17.207031 C 13.144531 -17.296875 9.425781 -26.980469 9.425781 -33.121094 Z M 9.425781 -33.121094 "/></g></g></g><g fill="#000000" fill-opacity="1"><g transform="translate(216.384433, 196.914136)"><g><path d="M 43.496094 0 C 40.558594 -5.707031 40.296875 -8.992188 40.296875 -9.945312 C 40.296875 -17.8125 40.210938 -25.683594 40.210938 -33.464844 C 40.210938 -41.335938 36.058594 -44.707031 30.09375 -44.707031 C 24.214844 -44.707031 16.085938 -38.136719 14.269531 -36.578125 L 14.269531 -44.707031 C 14.269531 -44.707031 1.210938 -38.828125 1.210938 -38.65625 C 4.410156 -35.714844 4.410156 -30.957031 4.410156 -30.957031 C 4.410156 -23.953125 4.410156 -16.949219 4.410156 -9.945312 C 4.410156 -8.820312 4.238281 -3.71875 1.210938 0 L 17.8125 0 C 14.613281 -5.101562 14.527344 -9.773438 14.527344 -10.203125 L 14.355469 -34.242188 C 17.207031 -35.453125 19.542969 -35.972656 21.53125 -35.972656 C 31.042969 -35.972656 31.042969 -29.140625 31.042969 -29.140625 C 31.042969 -22.914062 31.042969 -16.601562 31.042969 -10.289062 C 31.042969 -9.945312 30.871094 -7.609375 27.84375 0 Z M 43.496094 0 "/></g></g></g><g fill="#000000" fill-opacity="1"><g transform="translate(260.917843, 196.914136)"><g><path d="M 22.222656 -25.25 C 14.355469 -31.042969 8.734375 -34.675781 8.734375 -36.664062 C 8.734375 -37.617188 9.859375 -38.050781 12.367188 -38.050781 C 20.320312 -38.050781 28.449219 -29.054688 28.449219 -29.054688 L 32.339844 -39.605469 C 32.339844 -39.605469 29.316406 -44.1875 17.898438 -44.1875 C 8.128906 -44.1875 2.941406 -37.703125 2.941406 -33.464844 C 2.941406 -29.230469 4.0625 -24.644531 15.824219 -16.171875 C 23.695312 -10.808594 28.882812 -7.871094 28.882812 -5.792969 C 27.84375 -4.757812 26.632812 -4.238281 25.421875 -4.238281 C 14.183594 -4.324219 8.820312 -14.09375 8.820312 -14.09375 L 0.691406 -5.792969 C 0.691406 -5.792969 5.1875 1.296875 17.121094 1.296875 C 34.15625 1.296875 35.542969 -7.4375 35.542969 -9.683594 C 35.542969 -15.566406 31.996094 -17.988281 22.222656 -25.25 Z M 22.222656 -25.25 "/></g></g></g><g fill="#000000" fill-opacity="1"><g transform="translate(297.495767, 196.914136)"><g><path d="M 22.222656 -25.25 C 14.355469 -31.042969 8.734375 -34.675781 8.734375 -36.664062 C 8.734375 -37.617188 9.859375 -38.050781 12.367188 -38.050781 C 20.320312 -38.050781 28.449219 -29.054688 28.449219 -29.054688 L 32.339844 -39.605469 C 32.339844 -39.605469 29.316406 -44.1875 17.898438 -44.1875 C 8.128906 -44.1875 2.941406 -37.703125 2.941406 -33.464844 C 2.941406 -29.230469 4.0625 -24.644531 15.824219 -16.171875 C 23.695312 -10.808594 28.882812 -7.871094 28.882812 -5.792969 C 27.84375 -4.757812 26.632812 -4.238281 25.421875 -4.238281 C 14.183594 -4.324219 8.820312 -14.09375 8.820312 -14.09375 L 0.691406 -5.792969 C 0.691406 -5.792969 5.1875 1.296875 17.121094 1.296875 C 34.15625 1.296875 35.542969 -7.4375 35.542969 -9.683594 C 35.542969 -15.566406 31.996094 -17.988281 22.222656 -25.25 Z M 22.222656 -25.25 "/></g></g></g></svg>