<svg xmlns="http://www.w3.org/2000/svg" xmlns:xlink="http://www.w3.org/1999/xlink" width="500" zoomAndPan="magnify" viewBox="0 0 375 374.999991" height="500" preserveAspectRatio="xMidYMid meet" version="1.0"><defs><clipPath id="id1"><path d="M 37.5 124.101562 L 212 124.101562 L 212 262 L 37.5 262 Z M 37.5 124.101562 " clip-rule="nonzero"/></clipPath><clipPath id="id2"><path d="M 121 139 L 337.5 139 L 337.5 232 L 121 232 Z M 121 139 " clip-rule="nonzero"/></clipPath><clipPath id="id3"><path d="M 37.546875 124.101562 L 337.441406 124.101562 L 337.441406 248.574219 L 37.546875 248.574219 Z M 37.546875 124.101562 " clip-rule="nonzero"/></clipPath></defs><path fill="#a7d2dd" d="M 66.121094 271.328125 C 41.011719 296.011719 0.0078125 326.101562 0.0078125 326.101562 C 18.515625 309.175781 81.398438 305.070312 95.429688 307.007812 C 120.453125 317.050781 145.535156 324.800781 152.789062 326.113281 C 211.847656 336.792969 313.953125 328.949219 347.925781 257.292969 C 367.164062 216.71875 358.464844 168.515625 338.351562 135.6875 C 293.347656 62.25 179.242188 46.289062 103.734375 88.203125 C 59.566406 112.722656 18.617188 167.886719 32.457031 229.046875 C 37.15625 249.824219 51.507812 258.507812 66.121094 271.328125 Z M 66.121094 271.328125 " fill-opacity="1" fill-rule="nonzero"/><path fill="#f4ebd0" d="M 369.707031 220.324219 C 369.542969 220.324219 369.375 220.3125 369.207031 220.289062 C 367.355469 220.015625 366.070312 218.292969 366.34375 216.441406 C 368.003906 205.121094 368.199219 193.347656 366.917969 181.457031 C 365.714844 170.269531 363.230469 159.121094 359.53125 148.3125 C 355.957031 137.875 351.339844 128.003906 345.8125 118.984375 C 344.832031 117.386719 345.335938 115.296875 346.933594 114.320312 C 348.53125 113.339844 350.621094 113.84375 351.601562 115.441406 C 357.386719 124.886719 362.21875 135.207031 365.953125 146.121094 C 369.816406 157.402344 372.410156 169.046875 373.667969 180.730469 C 375.007812 193.191406 374.804688 205.535156 373.058594 217.425781 C 372.8125 219.109375 371.363281 220.324219 369.707031 220.324219 Z M 369.707031 220.324219 " fill-opacity="1" fill-rule="nonzero"/><path fill="#f4ebd0" d="M 281.949219 62.402344 C 281.464844 62.402344 280.972656 62.296875 280.503906 62.078125 C 254.601562 49.886719 224.691406 43.445312 194.007812 43.445312 C 176.792969 43.445312 159.765625 45.464844 143.40625 49.449219 C 141.585938 49.894531 139.75 48.777344 139.304688 46.960938 C 138.863281 45.140625 139.976562 43.304688 141.800781 42.859375 C 158.683594 38.746094 176.25 36.660156 194.007812 36.660156 C 225.683594 36.660156 256.59375 43.328125 283.394531 55.941406 C 285.089844 56.738281 285.816406 58.757812 285.019531 60.453125 C 284.441406 61.679688 283.222656 62.402344 281.949219 62.402344 Z M 281.949219 62.402344 " fill-opacity="1" fill-rule="nonzero"/><path fill="#f4ebd0" d="M 25.277344 130.457031 C 24.605469 130.457031 23.925781 130.257812 23.332031 129.839844 C 21.800781 128.765625 21.425781 126.652344 22.503906 125.117188 C 31.730469 111.964844 43.011719 99.496094 56.03125 88.0625 C 57.441406 86.828125 59.585938 86.964844 60.824219 88.371094 C 62.058594 89.78125 61.921875 91.921875 60.515625 93.160156 C 47.898438 104.234375 36.980469 116.296875 28.0625 129.007812 C 27.398438 129.953125 26.347656 130.457031 25.277344 130.457031 Z M 25.277344 130.457031 " fill-opacity="1" fill-rule="nonzero"/><path fill="#f4ebd0" d="M 46.835938 270.855469 C 21.722656 295.539062 0.00390625 326.101562 0.00390625 326.101562 C 18.515625 309.175781 66.648438 302.328125 95.71875 299.675781 C 120.742188 309.71875 143.589844 313.851562 150.847656 315.164062 C 209.90625 325.84375 312.011719 318 345.984375 246.34375 C 365.222656 205.765625 356.523438 157.566406 336.40625 124.738281 C 291.402344 51.300781 177.300781 35.339844 101.792969 77.25 C 57.621094 101.769531 2.054688 159.75 15.890625 220.90625 C 20.59375 241.6875 32.222656 258.03125 46.835938 270.855469 Z M 46.835938 270.855469 " fill-opacity="1" fill-rule="nonzero"/><g clip-path="url(#id1)"><path fill="#9370db" d="M 186.914062 193.261719 C 182.671875 196.582031 178.4375 199.84375 174.191406 202.996094 C 169.417969 206.5625 164.613281 209.980469 159.789062 213.203125 C 154.972656 216.425781 150.121094 219.457031 145.234375 222.152344 C 140.363281 224.875 135.457031 227.277344 130.5625 229.214844 C 125.679688 231.191406 120.804688 232.667969 116.054688 233.539062 C 113.703125 233.988281 111.25 234.277344 109.242188 234.402344 L 107.320312 234.472656 L 105.613281 234.460938 C 105.042969 234.476562 104.480469 234.417969 103.914062 234.390625 C 103.351562 234.355469 102.78125 234.347656 102.222656 234.265625 C 97.726562 233.863281 93.324219 232.78125 89.1875 231.082031 C 85.042969 229.40625 81.160156 227.105469 77.695312 224.3125 C 75.9375 222.945312 74.316406 221.414062 72.796875 219.804688 C 71.257812 218.207031 69.882812 216.46875 68.613281 214.667969 C 66.054688 211.074219 64.117188 207.109375 62.648438 203.023438 C 61.917969 200.976562 61.367188 198.875 60.910156 196.757812 L 60.628906 195.160156 L 60.484375 194.359375 L 60.394531 193.648438 L 60.199219 192.230469 L 60.070312 190.253906 L 60.007812 189.257812 C 60 189.109375 60.007812 189.644531 60.003906 189.324219 L 59.992188 188.714844 L 59.957031 187.101562 L 60.003906 185.492188 C 60.015625 184.960938 60.023438 184.425781 60.082031 183.894531 C 60.207031 181.761719 60.503906 179.65625 60.882812 177.574219 C 61.324219 175.507812 61.804688 173.449219 62.507812 171.472656 C 62.808594 170.464844 63.230469 169.507812 63.589844 168.523438 C 63.789062 168.042969 64.011719 167.570312 64.21875 167.09375 C 64.429688 166.617188 64.632812 166.132812 64.878906 165.675781 C 66.726562 161.953125 68.933594 158.433594 71.574219 155.316406 C 72.859375 153.726562 74.292969 152.289062 75.738281 150.878906 C 77.230469 149.535156 78.742188 148.207031 80.363281 147.054688 C 86.71875 142.226562 94.0625 139.261719 101.398438 137.800781 L 102.085938 137.65625 L 102.734375 137.554688 C 103.167969 137.484375 103.597656 137.414062 104.027344 137.339844 C 104.253906 137.308594 104.433594 137.261719 104.699219 137.238281 L 105.476562 137.164062 C 105.992188 137.117188 106.507812 137.070312 107.019531 137.019531 L 107.402344 136.984375 C 107.394531 136.980469 107.695312 136.964844 107.433594 136.96875 L 107.601562 136.960938 L 108.289062 136.929688 C 108.742188 136.90625 109.199219 136.890625 109.660156 136.890625 C 110.578125 136.863281 111.503906 136.886719 112.421875 136.898438 C 116.117188 137.023438 119.789062 137.347656 123.351562 137.875 C 130.480469 138.914062 137.152344 140.570312 143.257812 142.363281 C 146.3125 143.265625 149.226562 144.226562 151.988281 145.222656 C 154.753906 146.203125 157.378906 147.199219 159.851562 148.203125 C 169.738281 152.25 177.269531 156.171875 182.335938 158.964844 C 184.867188 160.371094 186.804688 161.460938 188.09375 162.234375 C 189.386719 163 190.058594 163.394531 190.058594 163.394531 C 190.058594 163.394531 189.46875 162.882812 188.335938 161.898438 C 187.769531 161.402344 187.066406 160.789062 186.207031 160.082031 C 185.355469 159.367188 184.367188 158.535156 183.21875 157.636719 C 180.945312 155.804688 178.078125 153.617188 174.601562 151.175781 C 171.128906 148.722656 167.039062 146.027344 162.289062 143.25 C 157.550781 140.453125 152.144531 137.589844 146.039062 134.859375 C 139.941406 132.109375 133.132812 129.523438 125.53125 127.449219 C 121.726562 126.414062 117.71875 125.511719 113.445312 124.921875 C 112.371094 124.789062 111.292969 124.644531 110.179688 124.550781 C 109.628906 124.492188 109.070312 124.449219 108.503906 124.417969 L 107.65625 124.363281 L 107.441406 124.347656 C 107.050781 124.347656 107.222656 124.34375 107.085938 124.339844 L 106.699219 124.324219 C 106.183594 124.300781 105.667969 124.277344 105.152344 124.257812 L 104.371094 124.222656 C 104.121094 124.207031 103.78125 124.222656 103.488281 124.222656 C 102.878906 124.230469 102.269531 124.242188 101.65625 124.25 L 100.734375 124.265625 L 99.851562 124.320312 C 95.140625 124.558594 90.304688 125.371094 85.484375 126.773438 C 80.65625 128.15625 75.863281 130.179688 71.253906 132.808594 C 68.9375 134.109375 66.726562 135.636719 64.523438 137.238281 C 62.375 138.90625 60.230469 140.652344 58.238281 142.609375 C 54.203125 146.464844 50.554688 150.9375 47.511719 155.941406 C 47.113281 156.558594 46.761719 157.203125 46.398438 157.84375 C 46.042969 158.488281 45.671875 159.125 45.328125 159.785156 C 44.675781 161.109375 43.972656 162.429688 43.394531 163.808594 C 42.144531 166.535156 41.15625 169.402344 40.253906 172.324219 C 39.863281 173.804688 39.414062 175.277344 39.113281 176.792969 C 38.953125 177.546875 38.777344 178.304688 38.632812 179.066406 C 38.511719 179.832031 38.386719 180.597656 38.261719 181.367188 C 38.128906 182.136719 38.042969 182.910156 37.960938 183.6875 C 37.882812 184.464844 37.789062 185.242188 37.722656 186.027344 C 37.675781 186.808594 37.632812 187.59375 37.585938 188.378906 L 37.554688 188.972656 L 37.539062 189.265625 C 37.53125 189.109375 37.53125 189.8125 37.53125 189.828125 L 37.519531 190.828125 C 37.511719 191.496094 37.507812 192.171875 37.5 192.84375 C 37.535156 193.707031 37.570312 194.566406 37.605469 195.429688 L 37.675781 196.71875 L 37.785156 197.917969 C 37.867188 198.714844 37.933594 199.519531 38.027344 200.320312 C 38.453125 203.523438 39.042969 206.738281 39.902344 209.914062 C 40.773438 213.082031 41.816406 216.242188 43.179688 219.289062 C 44.519531 222.34375 46.039062 225.351562 47.835938 228.21875 C 49.609375 231.09375 51.574219 233.886719 53.785156 236.503906 C 55.976562 239.132812 58.351562 241.644531 60.949219 243.949219 C 63.535156 246.261719 66.292969 248.417969 69.242188 250.328125 C 72.183594 252.246094 75.257812 254.015625 78.5 255.484375 C 84.960938 258.457031 91.953125 260.476562 99.136719 261.40625 C 100.03125 261.546875 100.933594 261.609375 101.839844 261.695312 C 102.742188 261.765625 103.644531 261.871094 104.550781 261.886719 L 107.273438 261.988281 L 109.785156 261.976562 C 113.699219 261.886719 117.160156 261.539062 120.683594 260.992188 C 134.71875 258.71875 147.324219 253.351562 158.871094 247.105469 C 170.425781 240.785156 181.046875 233.453125 191.191406 225.804688 C 198.023438 220.640625 204.632812 215.3125 211.117188 209.976562 C 211.082031 209.953125 211.054688 209.933594 211.019531 209.914062 C 202.628906 204.492188 194.824219 198.941406 186.914062 193.261719 " fill-opacity="1" fill-rule="nonzero"/></g><g clip-path="url(#id2)"><path fill="#9370db" d="M 337.320312 183.921875 C 337.148438 176.542969 335.050781 169.066406 331.152344 162.429688 C 327.269531 155.792969 321.484375 150.066406 314.667969 146.25 C 307.871094 142.386719 300.257812 140.347656 292.847656 139.746094 C 285.40625 139.113281 278.136719 139.917969 271.257812 141.441406 C 264.367188 142.984375 257.824219 145.285156 251.589844 148.015625 C 250.808594 148.347656 250.042969 148.710938 249.269531 149.0625 C 248.496094 149.417969 247.679688 149.824219 246.890625 150.203125 L 244.800781 151.253906 L 242.386719 152.53125 C 239.324219 154.210938 236.433594 155.972656 233.640625 157.773438 C 222.539062 165.039062 212.710938 172.871094 202.957031 180.558594 C 202.121094 181.222656 201.285156 181.886719 200.449219 182.550781 C 206.476562 186.328125 213.230469 190.472656 220.335938 194.554688 C 222.265625 195.65625 224.117188 196.683594 225.929688 197.675781 C 228.820312 195.273438 231.691406 192.898438 234.5625 190.585938 C 239.226562 186.808594 243.875 183.152344 248.503906 179.878906 C 250.808594 178.234375 253.109375 176.6875 255.371094 175.304688 L 256.980469 174.34375 L 258.957031 173.242188 L 260.6875 172.3125 C 261.292969 172 261.894531 171.667969 262.503906 171.367188 C 267.351562 168.898438 272.289062 166.863281 277.199219 165.464844 C 282.109375 164.066406 286.984375 163.324219 291.585938 163.332031 C 296.195312 163.351562 300.507812 164.226562 304.25 165.96875 C 307.980469 167.726562 311.222656 170.285156 313.628906 173.621094 C 316.050781 176.933594 317.613281 180.960938 318.167969 185.167969 C 318.742188 189.378906 318.273438 193.761719 316.785156 197.808594 C 315.285156 201.847656 312.871094 205.613281 309.613281 208.730469 C 306.375 211.867188 302.359375 214.359375 297.984375 216.253906 C 293.589844 218.140625 288.8125 219.359375 283.941406 220.101562 C 279.085938 220.910156 274.316406 220.5625 269.535156 219.96875 C 264.769531 219.292969 260.066406 218.164062 255.492188 216.726562 C 254.382812 216.375 253.28125 216.011719 252.183594 215.632812 C 252.066406 215.589844 251.949219 215.546875 251.835938 215.507812 C 250.917969 215.1875 250.007812 214.859375 249.097656 214.519531 C 248.855469 214.429688 248.617188 214.339844 248.375 214.246094 C 247.554688 213.9375 246.738281 213.617188 245.925781 213.292969 C 245.707031 213.207031 245.484375 213.121094 245.265625 213.03125 C 245.121094 212.972656 244.976562 212.910156 244.832031 212.851562 C 243.796875 212.429688 242.765625 211.996094 241.738281 211.550781 C 241.519531 211.457031 241.304688 211.359375 241.085938 211.261719 C 240.167969 210.863281 239.25 210.453125 238.339844 210.039062 C 237.996094 209.882812 237.660156 209.722656 237.316406 209.5625 C 236.566406 209.210938 235.8125 208.859375 235.0625 208.5 C 234.597656 208.273438 234.132812 208.046875 233.671875 207.824219 C 233.074219 207.53125 232.476562 207.234375 231.882812 206.9375 C 231.324219 206.65625 230.765625 206.375 230.207031 206.089844 C 229.679688 205.824219 229.15625 205.550781 228.628906 205.277344 C 227.363281 204.621094 226.109375 203.957031 224.871094 203.289062 L 224.867188 203.289062 C 222.425781 201.972656 220.015625 200.628906 217.640625 199.269531 C 208.902344 194.253906 200.582031 189.082031 192.714844 184.101562 C 184.851562 179.113281 177.433594 174.328125 170.488281 170.042969 C 163.550781 165.75 157.109375 161.914062 151.246094 158.777344 C 145.390625 155.636719 140.128906 153.171875 135.675781 151.445312 C 131.21875 149.726562 127.589844 148.734375 125.09375 148.222656 C 123.839844 147.988281 122.878906 147.816406 122.222656 147.742188 C 121.574219 147.65625 121.238281 147.609375 121.238281 147.609375 C 121.238281 147.609375 121.570312 147.679688 122.210938 147.820312 C 122.855469 147.941406 123.796875 148.191406 125.019531 148.519531 C 127.457031 149.210938 130.96875 150.457031 135.234375 152.480469 C 139.5 154.496094 144.519531 157.28125 150.085938 160.785156 C 155.652344 164.292969 161.796875 168.476562 168.40625 173.191406 C 175.019531 177.90625 182.125 183.117188 189.707031 188.578125 C 197.292969 194.027344 205.332031 199.769531 213.957031 205.34375 C 217.605469 207.703125 221.363281 210.042969 225.222656 212.316406 C 225.421875 212.4375 225.613281 212.554688 225.816406 212.671875 C 226.023438 212.792969 226.234375 212.910156 226.441406 213.03125 C 227.003906 213.359375 227.570312 213.6875 228.140625 214.007812 C 228.734375 214.351562 229.335938 214.6875 229.9375 215.023438 C 230.382812 215.273438 230.828125 215.523438 231.277344 215.773438 C 232.105469 216.226562 232.945312 216.679688 233.789062 217.128906 C 234.050781 217.265625 234.3125 217.410156 234.574219 217.546875 C 235.515625 218.042969 236.464844 218.527344 237.421875 219.011719 C 237.664062 219.132812 237.898438 219.257812 238.140625 219.375 C 238.273438 219.441406 238.402344 219.507812 238.535156 219.574219 C 239.335938 219.972656 240.152344 220.359375 240.96875 220.75 C 241.207031 220.863281 241.4375 220.980469 241.675781 221.09375 C 241.703125 221.105469 241.726562 221.117188 241.753906 221.128906 C 243.148438 221.785156 244.574219 222.425781 246.007812 223.046875 C 246.058594 223.066406 246.109375 223.089844 246.160156 223.109375 C 248.21875 223.996094 250.316406 224.847656 252.472656 225.636719 C 257.34375 227.441406 262.480469 228.957031 267.882812 230 C 270.59375 230.5 273.363281 230.882812 276.191406 231.105469 C 276.933594 231.144531 277.675781 231.179688 278.417969 231.21875 L 278.980469 231.242188 L 279.480469 231.25 L 280.464844 231.261719 C 281.183594 231.273438 281.90625 231.28125 282.628906 231.292969 C 283.335938 231.3125 284.046875 231.316406 284.757812 231.3125 C 287.613281 231.316406 290.515625 231.121094 293.445312 230.746094 C 296.375 230.378906 299.335938 229.796875 302.300781 228.988281 C 308.21875 227.375 314.15625 224.6875 319.496094 220.667969 C 324.828125 216.679688 329.539062 211.3125 332.675781 204.929688 C 335.84375 198.570312 337.5 191.300781 337.320312 183.921875 " fill-opacity="1" fill-rule="nonzero"/></g><g clip-path="url(#id3)"><path fill="#f0739d" d="M 323.953125 208.5625 C 320.875 215.566406 316.152344 221.835938 310.390625 226.929688 C 304.621094 232.039062 297.675781 235.808594 290.253906 238.027344 C 286.542969 239.136719 282.699219 239.859375 278.8125 240.132812 C 277.839844 240.171875 276.863281 240.25 275.890625 240.261719 L 272.96875 240.226562 C 272.484375 240.238281 271.996094 240.199219 271.511719 240.152344 L 270.046875 240.027344 L 268.582031 239.910156 C 268.09375 239.855469 267.609375 239.769531 267.125 239.699219 C 263.222656 239.21875 259.363281 238.226562 255.566406 237.027344 C 251.753906 235.851562 248.054688 234.269531 244.40625 232.566406 L 241.6875 231.234375 L 239.015625 229.804688 C 238.117188 229.339844 237.242188 228.828125 236.371094 228.316406 C 235.5 227.796875 234.605469 227.3125 233.75 226.765625 C 230.285156 224.652344 226.914062 222.371094 223.589844 220 C 216.988281 215.207031 210.691406 209.945312 204.699219 204.339844 C 200.039062 199.996094 195.527344 195.472656 191.257812 190.722656 L 191.984375 189.800781 L 193.148438 186.34375 C 193.214844 187.402344 192.824219 188.710938 192.167969 189.570312 C 191.84375 189.988281 192.109375 189.644531 192.054688 189.722656 L 192.109375 189.652344 L 192.335938 189.375 L 192.808594 188.808594 L 193.765625 187.675781 L 195.730469 185.410156 C 197.054688 183.90625 198.40625 182.417969 199.773438 180.945312 C 202.511719 178 205.328125 175.121094 208.207031 172.3125 C 213.984375 166.714844 220.015625 161.394531 226.335938 156.527344 C 229.484375 154.066406 232.734375 151.785156 236.023438 149.578125 C 239.339844 147.417969 242.71875 145.386719 246.175781 143.550781 C 253.09375 139.929688 260.34375 137.046875 267.726562 135.671875 C 268.1875 135.585938 268.648438 135.472656 269.109375 135.40625 L 270.496094 135.230469 L 271.878906 135.050781 L 272.574219 134.960938 L 273.261719 134.921875 L 276.027344 134.773438 C 276.953125 134.757812 277.890625 134.792969 278.820312 134.796875 C 282.550781 134.929688 286.253906 135.492188 289.855469 136.441406 C 293.460938 137.390625 296.957031 138.753906 300.285156 140.460938 C 303.613281 142.160156 306.757812 144.246094 309.636719 146.660156 C 315.394531 151.472656 320.160156 157.539062 323.382812 164.375 C 326.640625 171.1875 328.410156 178.722656 328.511719 186.339844 C 328.601562 193.953125 327.066406 201.578125 323.953125 208.5625 Z M 183.332031 182.4375 L 183.265625 182.519531 L 183.03125 182.820312 C 183.007812 182.851562 182.984375 182.886719 182.960938 182.921875 L 182.972656 182.886719 L 182.097656 183.996094 L 181.171875 185.148438 C 180.539062 185.914062 179.90625 186.683594 179.261719 187.441406 C 177.972656 188.96875 176.652344 190.476562 175.3125 191.964844 C 172.632812 194.949219 169.867188 197.859375 167.035156 200.695312 C 161.355469 206.351562 155.378906 211.695312 149.105469 216.574219 C 145.984375 219.042969 142.742188 221.3125 139.460938 223.503906 C 136.164062 225.667969 132.769531 227.640625 129.324219 229.464844 C 122.394531 233.003906 115.140625 235.800781 107.730469 237.089844 L 106.34375 237.347656 L 104.949219 237.507812 C 104.023438 237.601562 103.097656 237.757812 102.171875 237.800781 L 99.386719 237.917969 C 99.15625 237.925781 98.925781 237.941406 98.691406 237.945312 L 96.59375 237.898438 C 92.863281 237.757812 89.148438 237.226562 85.539062 236.277344 C 78.320312 234.382812 71.480469 230.964844 65.660156 226.214844 C 59.851562 221.460938 55.050781 215.449219 51.734375 208.671875 C 48.417969 201.898438 46.597656 194.386719 46.4375 186.785156 C 46.257812 179.179688 47.734375 171.539062 50.773438 164.527344 C 52.292969 161.023438 54.183594 157.671875 56.421875 154.558594 C 58.671875 151.457031 61.242188 148.574219 64.101562 146.003906 C 66.957031 143.433594 70.089844 141.15625 73.445312 139.257812 C 76.804688 137.367188 80.375 135.84375 84.070312 134.707031 C 87.765625 133.578125 91.597656 132.851562 95.476562 132.550781 C 99.363281 132.226562 103.230469 132.457031 107.121094 132.984375 C 111.007812 133.5 114.855469 134.507812 118.636719 135.75 C 120.539062 136.34375 122.394531 137.097656 124.265625 137.816406 C 126.101562 138.621094 127.960938 139.382812 129.761719 140.292969 C 131.585938 141.140625 133.355469 142.113281 135.148438 143.058594 C 136.902344 144.0625 138.679688 145.035156 140.398438 146.117188 C 142.136719 147.152344 143.828125 148.289062 145.539062 149.382812 C 147.222656 150.527344 148.921875 151.648438 150.566406 152.851562 C 153.890625 155.214844 157.132812 157.703125 160.296875 160.292969 C 163.46875 162.875 166.566406 165.554688 169.609375 168.304688 C 174.464844 172.691406 179.160156 177.269531 183.644531 182.058594 L 183.59375 182.117188 Z M 332.027344 160.351562 C 328.386719 152.183594 322.867188 144.878906 316.109375 139.003906 C 309.363281 133.105469 301.25 128.761719 292.582031 126.34375 C 288.25 125.136719 283.78125 124.398438 279.292969 124.175781 C 278.167969 124.148438 277.046875 124.09375 275.917969 124.101562 L 272.523438 124.230469 L 271.671875 124.269531 L 270.832031 124.363281 L 269.15625 124.554688 L 267.480469 124.75 C 266.921875 124.824219 266.378906 124.945312 265.828125 125.039062 C 256.988281 126.550781 248.773438 129.835938 241.09375 133.753906 C 237.265625 135.746094 233.566406 137.929688 229.96875 140.238281 C 226.398438 142.585938 222.894531 145.007812 219.527344 147.59375 C 212.78125 152.742188 206.429688 158.328125 200.363281 164.175781 C 197.335938 167.109375 194.382812 170.113281 191.503906 173.191406 C 190.0625 174.730469 188.644531 176.289062 187.242188 177.871094 C 186.539062 178.664062 185.84375 179.464844 185.152344 180.269531 L 184.113281 181.496094 L 183.875 181.78125 C 174.558594 170.28125 164.027344 159.730469 152.453125 150.351562 C 150.847656 149.03125 149.183594 147.789062 147.539062 146.523438 C 145.859375 145.300781 144.179688 144.070312 142.445312 142.917969 C 140.734375 141.726562 138.953125 140.636719 137.195312 139.515625 C 135.394531 138.453125 133.609375 137.363281 131.75 136.386719 C 129.925781 135.355469 128.019531 134.460938 126.136719 133.53125 C 124.207031 132.679688 122.292969 131.796875 120.300781 131.070312 C 116.351562 129.5625 112.269531 128.277344 108.039062 127.503906 C 107.511719 127.40625 106.992188 127.269531 106.457031 127.203125 L 104.855469 126.984375 C 103.785156 126.84375 102.71875 126.671875 101.632812 126.636719 C 100.550781 126.578125 99.464844 126.484375 98.386719 126.460938 C 97.304688 126.472656 96.222656 126.4375 95.144531 126.492188 C 90.820312 126.652344 86.5 127.285156 82.292969 128.390625 C 78.085938 129.492188 73.996094 131.074219 70.121094 133.082031 C 66.246094 135.097656 62.601562 137.558594 59.246094 140.371094 C 45.722656 151.550781 37.5 169.066406 37.546875 186.855469 C 37.515625 195.730469 39.433594 204.652344 43.167969 212.765625 C 46.90625 220.878906 52.488281 228.117188 59.289062 233.914062 C 66.113281 239.691406 74.210938 243.988281 82.859375 246.359375 C 87.179688 247.558594 91.636719 248.253906 96.109375 248.488281 L 97.789062 248.546875 L 98.628906 248.574219 C 98.90625 248.578125 99.191406 248.566406 99.46875 248.558594 L 102.847656 248.46875 C 103.972656 248.421875 105.078125 248.261719 106.195312 248.160156 L 107.867188 247.988281 L 109.511719 247.710938 C 113.929688 247.050781 118.1875 245.832031 122.335938 244.417969 L 125.414062 243.289062 C 126.429688 242.890625 127.425781 242.449219 128.425781 242.027344 L 129.929688 241.390625 L 131.398438 240.691406 C 132.371094 240.21875 133.355469 239.761719 134.320312 239.28125 C 138.15625 237.296875 141.890625 235.160156 145.484375 232.839844 C 149.0625 230.496094 152.578125 228.074219 155.929688 225.46875 C 159.300781 222.882812 162.578125 220.191406 165.734375 217.378906 C 168.898438 214.578125 171.992188 211.699219 174.980469 208.722656 C 177.96875 205.75 180.878906 202.699219 183.707031 199.570312 C 185.121094 198.007812 186.515625 196.417969 187.886719 194.804688 C 188.574219 194 189.257812 193.1875 189.933594 192.363281 L 190.945312 191.117188 L 190.988281 191.0625 C 192.371094 192.835938 193.792969 194.582031 195.242188 196.304688 C 197.902344 199.464844 200.652344 202.550781 203.492188 205.5625 C 209.183594 211.566406 215.242188 217.242188 221.679688 222.507812 C 224.917969 225.113281 228.226562 227.652344 231.6875 229.984375 C 232.539062 230.585938 233.433594 231.128906 234.304688 231.707031 C 235.179688 232.277344 236.058594 232.847656 236.964844 233.375 L 239.660156 234.988281 L 242.421875 236.503906 C 246.136719 238.460938 249.9375 240.308594 253.929688 241.753906 C 257.902344 243.21875 261.996094 244.484375 266.234375 245.222656 C 266.757812 245.320312 267.285156 245.4375 267.816406 245.523438 L 269.417969 245.726562 L 271.027344 245.925781 C 271.558594 245.996094 272.097656 246.058594 272.636719 246.074219 L 275.882812 246.242188 C 276.964844 246.273438 278.042969 246.230469 279.125 246.230469 C 283.457031 246.097656 287.777344 245.46875 291.992188 244.394531 C 300.421875 242.238281 308.421875 238.230469 315.199219 232.65625 C 321.980469 227.097656 327.609375 220.046875 331.421875 212.058594 C 335.261719 204.085938 337.351562 195.230469 337.4375 186.339844 C 337.539062 177.453125 335.6875 168.503906 332.027344 160.351562 " fill-opacity="1" fill-rule="nonzero"/></g></svg>